#!OML:ASF G:\JayActor3\Patient Classification 1\Patient 1\Session 6\male.ASF
:FULLY-SPECIFIED
:DEGREES
1082
root -33.3998 16.4656 -16.2409 -546.366 -69.8535 187.377
lowerback -0.913922 -0.835444 3.0679
upperback 0.612736 -1.16956 0.508088
thorax 1.08995 -0.56605 -1.21915
lowerneck 5.81063 -3.09907 0.729338
upperneck -12.1946 -3.84299 3.53192
head -4.55093 -2.19619 1.18647
rclavicle -2.75798e-014 3.00662e-015
rhumerus -16.6944 17.2571 -76.9598
rradius 98.8056
rwrist -5.80277
rhand -54.8688 -3.28074
rfingers 7.12502
rthumb -27.2547 -31.3314
lclavicle -2.75798e-014 3.00662e-015
lhumerus -19.3388 -1.66116 73.8128
lradius 95.2122
lwrist 73.212
lhand -36.945 6.61368
lfingers 7.12502
lthumb -10.0216 36.3551
rfemur -12.0942 -0.348427 27.5436
rtibia 36.0564
rfoot -27.5331 -19.3427
rtoes -4.1776
lfemur -10.1776 8.03991 -18.0295
ltibia 32.7084
lfoot -18.1411 -2.1368
ltoes -5.70609
1083
root -33.3906 16.4619 -16.2514 -546.3 -70.0383 187.309
lowerback -0.935744 -0.83357 2.99471
upperback 0.594091 -1.16647 0.521819
thorax 1.08487 -0.565322 -1.16427
lowerneck 5.85181 -3.13755 0.690255
upperneck -12.3715 -3.87779 3.71913
head -4.60687 -2.22745 1.2559
rclavicle 8.3377e-015 -6.95746e-016
rhumerus -16.9205 17.2842 -77.3587
rradius 98.4199
rwrist -5.71176
rhand -54.8629 -3.25333
rfingers 7.12502
rthumb -27.249 -31.3049
lclavicle 8.3377e-015 -6.95746e-016
lhumerus -19.7308 -1.61657 73.9668
lradius 94.8875
lwrist 73.2427
lhand -36.9859 6.55643
lfingers 7.12502
lthumb -10.061 36.2959
rfemur -12.1566 -0.377198 27.5796
rtibia 36.1393
rfoot -27.7534 -19.4775
rtoes -3.87024
lfemur -10.1003 7.98046 -17.9883
ltibia 32.4721
lfoot -18.1372 -2.47445
ltoes -5.20437
1084
root -33.3818 16.4581 -16.2614 -546.209 -70.2084 187.212
lowerback -0.950405 -0.829415 2.92258
upperback 0.570522 -1.15982 0.528877
thorax 1.0707 -0.562904 -1.1166
lowerneck 5.86561 -3.18442 0.66735
upperneck -12.5105 -3.92561 3.88184
head -4.64718 -2.2636 1.31486
rclavicle -3.67391e-014 -1.37907e-015
rhumerus -17.1659 17.3013 -77.7687
rradius 98.0414
rwrist -5.64401
rhand -54.8586 -3.23808
rfingers 7.12502
rthumb -27.2449 -31.2903
lclavicle -3.67391e-014 -1.37907e-015
lhumerus -20.1337 -1.58052 74.1151
lradius 94.5642
lwrist 73.2296
lhand -37.0041 6.49049
lfingers 7.12502
lthumb -10.0786 36.2291
rfemur -12.2178 -0.406654 27.604
rtibia 36.2274
rfoot -27.9817 -19.5828
rtoes -3.51142
lfemur -10.0221 7.97454 -17.9659
ltibia 32.24
lfoot -18.1538 -2.72732
ltoes -4.81406
1085
root -33.3734 16.4541 -16.2706 -546.142 -70.3658 187.136
lowerback -0.953822 -0.822881 2.87184
upperback 0.540975 -1.14979 0.534997
thorax 1.0438 -0.558851 -1.08154
lowerneck 5.84626 -3.24131 0.663945
upperneck -12.6014 -3.99005 4.00709
head -4.66797 -2.30535 1.35865
rclavicle -4.72733e-014 -1.19271e-015
rhumerus -17.4305 17.314 -78.1826
rradius 97.667
rwrist -5.60885
rhand -54.853 -3.22778
rfingers 7.12502
rthumb -27.2396 -31.2808
lclavicle -4.72733e-014 -1.19271e-015
lhumerus -20.5449 -1.55347 74.2627
lradius 94.2363
lwrist 73.1705
lhand -36.9932 6.42962
lfingers 7.12502
lthumb -10.0681 36.1688
rfemur -12.2724 -0.444123 27.6305
rtibia 36.317
rfoot -28.2009 -19.6567
rtoes -3.13986
lfemur -9.93973 8.00659 -17.9491
ltibia 32.0147
lfoot -18.1615 -2.96524
ltoes -4.28937
1086
root -33.3664 16.4498 -16.279 -546.087 -70.5158 187.055
lowerback -0.94978 -0.816604 2.83836
upperback 0.511761 -1.14007 0.538048
thorax 1.01265 -0.554865 -1.05918
lowerneck 5.8194 -3.29682 0.663435
upperneck -12.6698 -4.05429 4.11578
head -4.68092 -2.34554 1.39635
rclavicle -7.0191e-015 -2.38542e-015
rhumerus -17.7059 17.3327 -78.5935
rradius 97.297
rwrist -5.62268
rhand -54.8385 -3.22349
rfingers 7.12502
rthumb -27.2257 -31.2787
lclavicle -7.0191e-015 -2.38542e-015
lhumerus -20.9598 -1.52668 74.4112
lradius 93.8967
lwrist 73.07
lhand -36.9558 6.388
lfingers 7.12502
lthumb -10.032 36.1289
rfemur -12.3033 -0.512819 27.6404
rtibia 36.4064
rfoot -28.3851 -19.6859
rtoes -2.83551
lfemur -9.83373 8.05038 -17.9524
ltibia 31.7938
lfoot -18.177 -3.17719
ltoes -3.63463
1087
root -33.3605 16.4449 -16.2864 -546.056 -70.6554 186.989
lowerback -0.944188 -0.810192 2.82522
upperback 0.484985 -1.13055 0.54209
thorax 0.982749 -0.550814 -1.04718
lowerneck 5.77952 -3.35268 0.668629
upperneck -12.7102 -4.1215 4.20002
head -4.68361 -2.38516 1.42499
rclavicle 1.66388e-014 2.22856e-015
rhumerus -17.9848 17.3672 -78.9947
rradius 96.9319
rwrist -5.68636
rhand -54.833 -3.22198
rfingers 7.12502
rthumb -27.2204 -31.278
lclavicle 1.66388e-014 2.22856e-015
lhumerus -21.3694 -1.4938 74.5624
lradius 93.5389
lwrist 72.9349
lhand -36.8927 6.35744
lfingers 7.12502
lthumb -9.97117 36.1013
rfemur -12.3172 -0.59965 27.6425
rtibia 36.4955
rfoot -28.5426 -19.6739
rtoes -2.56833
lfemur -9.70935 8.09712 -17.9698
ltibia 31.5777
lfoot -18.213 -3.30479
ltoes -2.94722
